<mxfile host="app.diagrams.net" modified="2024-07-14T21:44:47.072Z" agent="Mozilla/5.0 (Macintosh; Intel Mac OS X 10_15_7) AppleWebKit/537.36 (KHTML, like Gecko) Chrome/126.0.0.0 Safari/537.36" etag="tBpvf9mRLZfRPSW6EIn2" version="24.6.5" type="device">
  <diagram name="Side-1" id="4fUqBWXHznioXVkyNGOa">
    <mxGraphModel dx="3695" dy="3978" grid="1" gridSize="10" guides="1" tooltips="1" connect="1" arrows="1" fold="1" page="1" pageScale="1" pageWidth="827" pageHeight="1169" math="0" shadow="0">
      <root>
        <mxCell id="0" />
        <mxCell id="1" parent="0" />
        <mxCell id="uKUWkSbd6TmhzuxKBlYC-43" value="" style="rounded=1;whiteSpace=wrap;html=1;fillColor=none;strokeWidth=7;" vertex="1" parent="1">
          <mxGeometry x="-460" y="-1280" width="1510" height="960" as="geometry" />
        </mxCell>
        <mxCell id="uKUWkSbd6TmhzuxKBlYC-44" value="" style="rounded=1;whiteSpace=wrap;html=1;fillColor=#B3B3B3;" vertex="1" parent="1">
          <mxGeometry x="-410" y="-1230" width="760" height="650" as="geometry" />
        </mxCell>
        <mxCell id="uKUWkSbd6TmhzuxKBlYC-45" value="&lt;font style=&quot;font-size: 24px;&quot;&gt;&lt;b&gt;ASP.NET Core Application&lt;/b&gt;&lt;/font&gt;" style="rounded=1;whiteSpace=wrap;html=1;" vertex="1" parent="1">
          <mxGeometry x="-191.5" y="-1200" width="320" height="60" as="geometry" />
        </mxCell>
        <mxCell id="uKUWkSbd6TmhzuxKBlYC-46" value="&lt;div&gt;&lt;br&gt;&lt;/div&gt;" style="rounded=1;whiteSpace=wrap;html=1;fillColor=#C3ABD0;" vertex="1" parent="1">
          <mxGeometry x="-167.87" y="-1120" width="272.75" height="120" as="geometry" />
        </mxCell>
        <mxCell id="uKUWkSbd6TmhzuxKBlYC-48" value="" style="rounded=1;whiteSpace=wrap;html=1;fillColor=#FFFF66;" vertex="1" parent="1">
          <mxGeometry x="-370.5" y="-910" width="660.5" height="300" as="geometry" />
        </mxCell>
        <mxCell id="uKUWkSbd6TmhzuxKBlYC-49" value="&lt;font style=&quot;font-size: 18px;&quot;&gt;&lt;b style=&quot;&quot;&gt;Backend (REST API)&lt;/b&gt;&lt;/font&gt;" style="text;strokeColor=none;align=center;fillColor=none;html=1;verticalAlign=middle;whiteSpace=wrap;rounded=0;" vertex="1" parent="1">
          <mxGeometry x="-89" y="-890" width="100" height="30" as="geometry" />
        </mxCell>
        <mxCell id="uKUWkSbd6TmhzuxKBlYC-50" value="&lt;font style=&quot;font-size: 18px;&quot;&gt;&lt;b&gt;Controllers&lt;/b&gt;&lt;/font&gt;" style="rounded=1;whiteSpace=wrap;html=1;fillColor=#00FFFF;" vertex="1" parent="1">
          <mxGeometry x="-354" y="-840" width="190" height="50" as="geometry" />
        </mxCell>
        <mxCell id="uKUWkSbd6TmhzuxKBlYC-51" value="&lt;font style=&quot;font-size: 14px;&quot;&gt;&lt;b&gt;HomeCotroller&lt;/b&gt;&lt;/font&gt;" style="rounded=1;whiteSpace=wrap;html=1;fillColor=#00FFFF;" vertex="1" parent="1">
          <mxGeometry x="-339" y="-790" width="160" height="40" as="geometry" />
        </mxCell>
        <mxCell id="uKUWkSbd6TmhzuxKBlYC-52" value="&lt;font style=&quot;font-size: 14px;&quot;&gt;&lt;b&gt;PhotosCotroller&lt;/b&gt;&lt;/font&gt;" style="rounded=1;whiteSpace=wrap;html=1;fillColor=#00FFFF;" vertex="1" parent="1">
          <mxGeometry x="-339" y="-750" width="160" height="40" as="geometry" />
        </mxCell>
        <mxCell id="uKUWkSbd6TmhzuxKBlYC-53" value="&lt;font style=&quot;font-size: 18px;&quot;&gt;&lt;b&gt;Services&lt;/b&gt;&lt;/font&gt;" style="rounded=1;whiteSpace=wrap;html=1;fillColor=#FF8000;" vertex="1" parent="1">
          <mxGeometry x="-134" y="-840" width="190" height="50" as="geometry" />
        </mxCell>
        <mxCell id="uKUWkSbd6TmhzuxKBlYC-54" value="&lt;font style=&quot;font-size: 14px;&quot;&gt;&lt;b&gt;FetchService&lt;/b&gt;&lt;/font&gt;" style="rounded=1;whiteSpace=wrap;html=1;fillColor=#FF8000;" vertex="1" parent="1">
          <mxGeometry x="-119" y="-790" width="160" height="40" as="geometry" />
        </mxCell>
        <mxCell id="uKUWkSbd6TmhzuxKBlYC-55" value="&lt;font style=&quot;font-size: 18px;&quot;&gt;&lt;b&gt;Models&lt;/b&gt;&lt;/font&gt;" style="rounded=1;whiteSpace=wrap;html=1;fillColor=#B3FF66;" vertex="1" parent="1">
          <mxGeometry x="86" y="-840" width="190" height="50" as="geometry" />
        </mxCell>
        <mxCell id="uKUWkSbd6TmhzuxKBlYC-56" value="&lt;font style=&quot;font-size: 14px;&quot;&gt;&lt;b&gt;PhotoModel&lt;/b&gt;&lt;/font&gt;" style="rounded=1;whiteSpace=wrap;html=1;fillColor=#B3FF66;" vertex="1" parent="1">
          <mxGeometry x="101" y="-790" width="160" height="40" as="geometry" />
        </mxCell>
        <mxCell id="uKUWkSbd6TmhzuxKBlYC-57" value="&lt;font style=&quot;font-size: 14px;&quot;&gt;&lt;b&gt;FlickrApiSettings&lt;/b&gt;&lt;/font&gt;" style="rounded=1;whiteSpace=wrap;html=1;fillColor=#B3FF66;" vertex="1" parent="1">
          <mxGeometry x="101" y="-750" width="160" height="40" as="geometry" />
        </mxCell>
        <mxCell id="uKUWkSbd6TmhzuxKBlYC-58" value="" style="endArrow=classic;html=1;rounded=0;jumpSize=20;strokeWidth=3;" edge="1" parent="1">
          <mxGeometry width="50" height="50" relative="1" as="geometry">
            <mxPoint x="-35" y="-1000" as="sourcePoint" />
            <mxPoint x="-35" y="-920" as="targetPoint" />
          </mxGeometry>
        </mxCell>
        <mxCell id="uKUWkSbd6TmhzuxKBlYC-62" value="" style="rounded=1;whiteSpace=wrap;html=1;fillColor=#B3B3B3;" vertex="1" parent="1">
          <mxGeometry x="413" y="-1220" width="567" height="220" as="geometry" />
        </mxCell>
        <mxCell id="uKUWkSbd6TmhzuxKBlYC-63" value="&lt;font style=&quot;font-size: 24px;&quot;&gt;&lt;b&gt;Test Projects&lt;/b&gt;&lt;/font&gt;" style="rounded=1;whiteSpace=wrap;html=1;" vertex="1" parent="1">
          <mxGeometry x="553" y="-1200" width="287" height="60" as="geometry" />
        </mxCell>
        <mxCell id="uKUWkSbd6TmhzuxKBlYC-66" value="&lt;b&gt;&lt;font style=&quot;font-size: 14px;&quot;&gt;Logging&lt;/font&gt;&lt;/b&gt;" style="rounded=1;whiteSpace=wrap;html=1;fillColor=#FF66FF;" vertex="1" parent="1">
          <mxGeometry x="-100" y="-730" width="130" height="50" as="geometry" />
        </mxCell>
        <mxCell id="uKUWkSbd6TmhzuxKBlYC-69" value="&lt;b&gt;&lt;font style=&quot;font-size: 14px;&quot;&gt;Serilog&lt;/font&gt;&lt;/b&gt;" style="rounded=1;whiteSpace=wrap;html=1;fillColor=#FF66FF;" vertex="1" parent="1">
          <mxGeometry x="-84" y="-680" width="99" height="50" as="geometry" />
        </mxCell>
        <mxCell id="uKUWkSbd6TmhzuxKBlYC-72" value="" style="rounded=1;whiteSpace=wrap;html=1;fillColor=#B3B3B3;" vertex="1" parent="1">
          <mxGeometry x="-216.5" y="-210" width="380" height="160" as="geometry" />
        </mxCell>
        <mxCell id="uKUWkSbd6TmhzuxKBlYC-73" value="&lt;font style=&quot;font-size: 24px;&quot;&gt;&lt;b&gt;External Services&lt;/b&gt;&lt;/font&gt;" style="rounded=1;whiteSpace=wrap;html=1;" vertex="1" parent="1">
          <mxGeometry x="-186.5" y="-190" width="320" height="60" as="geometry" />
        </mxCell>
        <mxCell id="uKUWkSbd6TmhzuxKBlYC-74" value="&lt;font style=&quot;font-size: 18px;&quot;&gt;&lt;b style=&quot;&quot;&gt;Flickr API&lt;/b&gt;&lt;/font&gt;" style="rounded=1;whiteSpace=wrap;html=1;fillColor=#66B2FF;" vertex="1" parent="1">
          <mxGeometry x="-120.5" y="-120" width="174" height="50" as="geometry" />
        </mxCell>
        <mxCell id="uKUWkSbd6TmhzuxKBlYC-76" value="&lt;font style=&quot;font-size: 24px;&quot;&gt;&lt;b&gt;Integration Test&lt;/b&gt;&lt;/font&gt;" style="rounded=1;whiteSpace=wrap;html=1;fillColor=#66B2FF;" vertex="1" parent="1">
          <mxGeometry x="723" y="-1100" width="220" height="60" as="geometry" />
        </mxCell>
        <mxCell id="uKUWkSbd6TmhzuxKBlYC-77" value="&lt;font style=&quot;font-size: 24px;&quot;&gt;&lt;b&gt;Unit Test&lt;/b&gt;&lt;/font&gt;" style="rounded=1;whiteSpace=wrap;html=1;fillColor=#66B2FF;" vertex="1" parent="1">
          <mxGeometry x="463" y="-1100" width="220" height="60" as="geometry" />
        </mxCell>
        <mxCell id="uKUWkSbd6TmhzuxKBlYC-78" value="&lt;font style=&quot;font-size: 14px;&quot;&gt;&lt;b&gt;HTML&lt;/b&gt;&lt;/font&gt;&lt;div&gt;&lt;font size=&quot;3&quot;&gt;&lt;b&gt;CSS&lt;/b&gt;&lt;/font&gt;&lt;/div&gt;&lt;div&gt;&lt;font size=&quot;3&quot;&gt;&lt;b&gt;Javascript&lt;/b&gt;&lt;/font&gt;&lt;/div&gt;" style="rounded=1;whiteSpace=wrap;html=1;fillColor=#B9E0A5;" vertex="1" parent="1">
          <mxGeometry x="-121.25" y="-1080" width="173.5" height="60" as="geometry" />
        </mxCell>
        <mxCell id="uKUWkSbd6TmhzuxKBlYC-79" value="&lt;font style=&quot;font-size: 18px;&quot;&gt;&lt;b&gt;FrontEnd&lt;/b&gt;&lt;/font&gt;" style="text;strokeColor=none;align=center;fillColor=none;html=1;verticalAlign=middle;whiteSpace=wrap;rounded=0;" vertex="1" parent="1">
          <mxGeometry x="-96.49" y="-1120" width="130" height="40" as="geometry" />
        </mxCell>
        <mxCell id="uKUWkSbd6TmhzuxKBlYC-80" value="" style="rounded=1;whiteSpace=wrap;html=1;fillColor=#B3B3B3;" vertex="1" parent="1">
          <mxGeometry x="450" y="-920" width="380" height="160" as="geometry" />
        </mxCell>
        <mxCell id="uKUWkSbd6TmhzuxKBlYC-81" value="&lt;font style=&quot;font-size: 24px;&quot;&gt;&lt;b&gt;CI/CD Pipeline&lt;/b&gt;&lt;/font&gt;" style="rounded=1;whiteSpace=wrap;html=1;" vertex="1" parent="1">
          <mxGeometry x="480" y="-900" width="320" height="60" as="geometry" />
        </mxCell>
        <mxCell id="uKUWkSbd6TmhzuxKBlYC-82" value="&lt;font style=&quot;font-size: 18px;&quot;&gt;&lt;b style=&quot;&quot;&gt;Github Action&lt;/b&gt;&lt;/font&gt;" style="rounded=1;whiteSpace=wrap;html=1;fillColor=#66B2FF;" vertex="1" parent="1">
          <mxGeometry x="560" y="-830" width="174" height="50" as="geometry" />
        </mxCell>
        <mxCell id="uKUWkSbd6TmhzuxKBlYC-83" value="" style="rounded=1;whiteSpace=wrap;html=1;fillColor=#B3B3B3;" vertex="1" parent="1">
          <mxGeometry x="457" y="-650" width="380" height="160" as="geometry" />
        </mxCell>
        <mxCell id="uKUWkSbd6TmhzuxKBlYC-84" value="&lt;font style=&quot;font-size: 24px;&quot;&gt;&lt;b&gt;Deployment&lt;/b&gt;&lt;/font&gt;" style="rounded=1;whiteSpace=wrap;html=1;" vertex="1" parent="1">
          <mxGeometry x="487" y="-630" width="320" height="60" as="geometry" />
        </mxCell>
        <mxCell id="uKUWkSbd6TmhzuxKBlYC-87" value="" style="endArrow=classic;html=1;rounded=0;jumpSize=20;strokeWidth=3;exitX=0.5;exitY=1;exitDx=0;exitDy=0;" edge="1" parent="1">
          <mxGeometry width="50" height="50" relative="1" as="geometry">
            <mxPoint x="-80.00000000000045" y="-579.9999999999995" as="sourcePoint" />
            <mxPoint x="-77.21000000000001" y="-210" as="targetPoint" />
          </mxGeometry>
        </mxCell>
        <mxCell id="uKUWkSbd6TmhzuxKBlYC-88" value="" style="endArrow=classic;html=1;rounded=0;jumpSize=20;strokeWidth=3;entryX=0.553;entryY=0.985;entryDx=0;entryDy=0;entryPerimeter=0;exitX=0.597;exitY=0;exitDx=0;exitDy=0;exitPerimeter=0;" edge="1" parent="1" source="uKUWkSbd6TmhzuxKBlYC-72" target="uKUWkSbd6TmhzuxKBlYC-44">
          <mxGeometry width="50" height="50" relative="1" as="geometry">
            <mxPoint x="120" y="-230" as="sourcePoint" />
            <mxPoint x="-10" y="-580" as="targetPoint" />
          </mxGeometry>
        </mxCell>
        <mxCell id="uKUWkSbd6TmhzuxKBlYC-90" value="&lt;b&gt;&lt;font style=&quot;font-size: 18px;&quot;&gt;API Request&lt;/font&gt;&lt;/b&gt;" style="text;strokeColor=none;align=center;fillColor=none;html=1;verticalAlign=middle;whiteSpace=wrap;rounded=0;rotation=-90;" vertex="1" parent="1">
          <mxGeometry x="-164" y="-400" width="130" height="20" as="geometry" />
        </mxCell>
        <mxCell id="uKUWkSbd6TmhzuxKBlYC-91" value="&lt;b&gt;&lt;font style=&quot;font-size: 18px;&quot;&gt;List of photos&lt;/font&gt;&lt;/b&gt;" style="text;strokeColor=none;align=center;fillColor=none;html=1;verticalAlign=middle;whiteSpace=wrap;rounded=0;rotation=-90;" vertex="1" parent="1">
          <mxGeometry x="-34" y="-400" width="130" height="20" as="geometry" />
        </mxCell>
        <mxCell id="uKUWkSbd6TmhzuxKBlYC-93" value="&lt;font style=&quot;font-size: 18px;&quot;&gt;&lt;b style=&quot;&quot;&gt;Docker Container&lt;/b&gt;&lt;/font&gt;" style="rounded=1;whiteSpace=wrap;html=1;fillColor=#66B2FF;" vertex="1" parent="1">
          <mxGeometry x="550" y="-560" width="220" height="60" as="geometry" />
        </mxCell>
      </root>
    </mxGraphModel>
  </diagram>
</mxfile>
